<svg width="1800" height="529" viewBox="0 0 1800 529" fill="none" xmlns="http://www.w3.org/2000/svg">
<g clip-path="url(#clip0_2512_467)">
<path d="M1342.38 266.238C1372.71 297.312 1478.36 383.13 1494.31 404.882C1529.43 452.775 1565.66 480.997 1592.35 496.677C1648.38 529.594 1721.2 544.886 1776.21 501.449C1784.65 494.79 1794.99 480.674 1792.85 473.376C1790.75 466.187 1782.94 467.145 1773.34 473.416C1706.25 517.223 1624.24 490.366 1571.82 435.121C1509.39 369.322 1499.98 321.658 1436.21 265.933C1374.59 212.117 1350.59 185.852 1359.3 161.741C1358.48 164.006 1340.4 169.173 1337.45 170.708C1328.04 175.615 1316.82 183.87 1312.34 193.9C1306.29 207.429 1314.11 237.276 1342.38 266.238Z" fill="#BB8F6B"/>
<path d="M1758.76 439.94C1753.14 436.126 1694.65 406.957 1669.65 360.439C1636.7 299.133 1625.8 203.934 1609.01 186.487C1592.1 168.923 1503.68 186.436 1466 152.996C1431.56 122.434 1464.67 89.2116 1458.62 79.1525C1452.57 69.0788 1436.47 67.0611 1423.03 71.0928C1389.05 81.2826 1343.32 146.003 1342.79 147.484C1334.06 171.597 1358.06 197.859 1419.68 251.675C1483.45 307.396 1492.86 355.065 1555.29 420.863C1589.15 456.546 1640.99 483.791 1690.87 485.232C1724.66 486.208 1741.98 468.005 1753.96 461.673C1776.36 449.832 1762.83 442.709 1758.75 439.936L1758.76 439.94Z" fill="#F6891F"/>
<path d="M1668.92 317.713C1663.73 319.825 1633.82 332.301 1634.57 321.273C1635.69 317.902 1639.34 315.938 1641.93 314.309C1649.09 310.608 1656.45 307.258 1664.17 304.954C1672.24 302.682 1676.46 314.211 1668.92 317.713Z" fill="black"/>
<path d="M1655.89 278.917C1650.51 280.329 1619.72 291.643 1621.39 280.59C1622.69 277.284 1626.45 275.582 1629.16 274.25C1636.55 271.035 1644.07 268.056 1651.84 265.918C1660.23 263.73 1664.01 275.952 1655.89 278.917Z" fill="black"/>
<path d="M1646.38 239.312C1640.92 241.471 1607.44 251.998 1608.78 240.64C1612.06 234.543 1620.31 232.798 1625.84 230.555C1631.39 228.69 1637 227.072 1642.81 226.172C1650.83 224.971 1653.83 236.351 1646.38 239.312Z" fill="black"/>
<path d="M1682.25 393.629C1666.19 395.926 1648.18 391.056 1636.89 378.917C1618.88 359.597 1608.34 334.725 1598.15 311.341C1586.43 283.228 1576.52 254.756 1563.62 227.496C1559.7 218.736 1554.76 210.898 1548.1 204.097C1546.78 202.751 1546.82 200.519 1548.3 199.3C1551.71 196.981 1556.13 201.038 1558.69 202.965C1572.51 215.521 1580.72 232.979 1587.76 249.723C1603.72 286.57 1614.26 326.578 1635.75 360.24C1648.05 379.65 1660.23 385.239 1682.25 387.456C1685.65 387.931 1685.68 393.15 1682.25 393.629Z" fill="black"/>
<path d="M1790.37 452.964C1789.72 444.759 1779.1 438.978 1772.41 434.261C1763.8 428.734 1754.76 423.41 1746 417.601C1721.73 401.851 1699.4 381.693 1683.49 357.148C1656.16 309.211 1647.78 253.036 1630.98 201.401C1624.62 183.903 1623.09 178.659 1603.25 176.344C1567.14 171.547 1528.43 175.488 1494.2 158.984C1479 151.036 1465.84 136.223 1463.51 118.533C1461.79 107.102 1465.83 95.4859 1469.09 85.3179C1470.58 80.6621 1471.23 76.2675 1470.39 74.6055C1467.82 69.0389 1457.83 68.1316 1451.49 68.9699C1442.22 69.5687 1435.34 75.3567 1427.89 80.7492C1411.93 92.9094 1396.58 106.808 1383.44 121.715C1377.83 128.236 1371.08 136.47 1368.96 144.225C1367.06 152.063 1370.48 159.6 1374.82 166.644C1379.75 174.497 1386.39 182.045 1393.29 189.335C1410.97 207.824 1430.82 224.793 1449.81 242.055C1452.83 244.733 1458.51 250.3 1461.28 253.21C1491.37 282.978 1512.54 320.279 1535.81 354.745C1553.3 379.745 1571.98 404.595 1595.11 424.583C1618.22 444.204 1645.57 459.238 1674.98 466.841C1702.95 473.884 1736.69 476.773 1758.71 454.648C1766.87 446.936 1778.44 438.92 1790.81 441.714C1794.83 442.295 1799.64 446.7 1799.86 451.059C1800.4 455.442 1799.19 458.534 1798.08 461.386C1793.32 472.113 1785.46 480.293 1776.15 486.843C1754.27 502.828 1727.2 511.308 1700.17 511.479C1657.09 511.806 1616.06 494.902 1580.31 472.237C1553.6 455.05 1529.27 434.094 1508.85 409.704C1501.96 401.456 1496.01 392.899 1489.47 385.213C1476.56 369.402 1461.77 355.558 1445.54 343.191C1411.9 318.301 1377.19 294.379 1348.43 263.407C1327.05 239.587 1304.02 212.378 1301.54 178.307C1301.06 168.052 1307.78 157.851 1316.92 153.62C1321.21 151.348 1330.53 147.712 1332.08 155.086C1332.46 157.314 1331.44 159.459 1329.64 160.602C1323.42 164.39 1315.1 169.663 1315.82 177.89C1317.36 196.509 1329.05 214.294 1340.55 229.191C1372.05 270.001 1414.76 299.659 1454.68 331.793C1471.03 345.252 1486.07 360.729 1499.18 377.357C1534.3 427.671 1582.8 469.199 1640.81 490.261C1678.39 503.822 1721.83 506.214 1757.41 486.317C1769.75 479.498 1782.72 470.502 1788.59 457.38C1789.47 455.192 1790.06 453.185 1789.56 452.162C1774.5 447.927 1764.71 465.926 1752.16 472.295C1727.72 485.783 1698.48 483.254 1672.44 476.845C1606.75 460.218 1562.48 416.421 1523.82 363.244C1497.55 326.876 1475.28 289.796 1443.27 260.461C1422.04 241.104 1399.79 222.971 1379.92 202.051C1350.74 171.122 1335.99 145.495 1370.24 110.092C1384.85 94.038 1400.7 80.125 1417.97 67.326C1424.31 62.8589 1431 57.8439 1438.76 55.1621C1451.57 51.6748 1466.65 51.2176 1477.83 60.1373C1487.13 67.4131 1486.49 80.1939 1482.49 89.7233C1479.13 99.0349 1475.32 107.606 1476.14 117.121C1477.63 130.602 1487.71 142.28 1499.59 148.674C1531.86 164.256 1569.54 160.598 1604.78 165.708C1627.99 168.585 1633.72 176.554 1640.77 198.059C1647.36 218.272 1651.91 238.495 1657.3 258.537C1662.59 278.565 1668.24 298.451 1675.39 317.706C1682.32 336.841 1690.95 355.326 1704.62 370.567C1724.4 394.322 1750.96 410.702 1777.19 426.854C1786.32 433.147 1798.85 440.285 1799.18 453.091C1798.93 458.868 1790.42 458.93 1790.35 452.964H1790.37Z" fill="black"/>
<path d="M1325.33 17.7596C1331.62 42.5628 1344.25 55.4416 1368 61.6614C1373.27 63.044 1373.36 70.5521 1368.12 72.0581C1344.16 78.942 1331.53 92.5574 1325.24 118.348C1323.89 123.867 1316.17 123.932 1314.72 118.438C1308.05 93.0219 1295.25 79.6859 1271.69 73.0633C1266.42 71.5827 1266.42 64.0782 1271.7 62.6593C1295.8 56.1891 1308.41 42.9619 1314.88 17.7306C1316.26 12.3417 1323.96 12.3671 1325.33 17.7596Z" fill="#F8B619"/>
<path d="M1446.25 394.394C1451.17 413.787 1461.04 423.86 1479.62 428.723C1483.74 429.805 1483.81 435.676 1479.71 436.852C1460.97 442.233 1451.1 452.88 1446.18 473.05C1445.13 477.364 1439.09 477.419 1437.96 473.122C1432.74 453.247 1422.73 442.821 1404.31 437.639C1400.2 436.482 1400.19 430.614 1404.32 429.503C1423.16 424.445 1433.03 414.103 1438.08 394.372C1439.17 390.159 1445.19 390.181 1446.26 394.394H1446.25Z" fill="#F8B619"/>
<path d="M1524.97 459.688C1527.51 469.689 1532.6 474.882 1542.17 477.39C1544.3 477.945 1544.34 480.975 1542.22 481.581C1532.56 484.357 1527.47 489.847 1524.93 500.244C1524.39 502.469 1521.27 502.498 1520.69 500.28C1518 490.033 1512.84 484.655 1503.34 481.984C1501.22 481.385 1501.22 478.362 1503.34 477.789C1513.06 475.18 1518.14 469.845 1520.75 459.674C1521.31 457.5 1524.41 457.511 1524.97 459.684L1524.97 459.688Z" fill="#F8B619"/>
<path d="M1268.33 403.165C1271.31 414.908 1277.28 421.008 1288.53 423.951C1291.03 424.604 1291.07 428.161 1288.59 428.876C1277.25 432.134 1271.26 438.583 1268.28 450.794C1267.64 453.407 1263.99 453.439 1263.3 450.837C1260.14 438.8 1254.08 432.49 1242.92 429.351C1240.43 428.651 1240.43 425.098 1242.93 424.427C1254.34 421.364 1260.31 415.1 1263.38 403.154C1264.03 400.603 1267.68 400.61 1268.33 403.165Z" fill="#F8B619"/>
<path d="M1337.87 347.763C1342.22 364.906 1350.95 373.808 1367.36 378.104C1371.01 379.059 1371.07 384.248 1367.44 385.289C1350.89 390.047 1342.15 399.456 1337.81 417.281C1336.88 421.095 1331.54 421.142 1330.54 417.343C1325.93 399.776 1317.08 390.562 1300.8 385.983C1297.16 384.959 1297.16 379.774 1300.81 378.794C1317.46 374.323 1326.18 365.182 1330.65 347.742C1331.61 344.019 1336.93 344.037 1337.88 347.763H1337.87Z" fill="#F8B619"/>
<path d="M1321.74 8.18668C1327 29.9307 1339.66 42.7007 1360.89 47.654C1370.37 50.1253 1372.06 64.0964 1363.28 68.7594C1362.19 69.438 1360.88 69.7682 1359.7 70.1747C1348.06 73.6547 1337.59 79.8238 1331.09 90.137C1327.04 96.2988 1324.22 103.81 1322.34 111.21C1322.12 112.106 1321.31 114.494 1320.52 115.492C1315.06 123.805 1301.66 121.149 1299.64 111.714C1294.94 91.0079 1282.09 75.9845 1261.79 70.7045C1259.81 70.3815 1255.41 67.845 1254.38 65.2721C1250.59 59.2192 1254.52 50.2922 1261.24 48.9387C1267.32 47.3383 1273.11 45.1139 1278.24 42.033C1290.34 35.0438 1296.97 22.1977 1300.24 8.88342C1300.36 8.48425 1300.87 6.35049 1301.78 5.01507C1306.61 -3.08089 1319.72 -0.907212 1321.74 8.18668ZM1310.77 10.97C1310.66 10.8829 1310.96 11.1587 1311.01 11.1478C1311.09 11.1188 1310.91 11.1369 1311.05 11.0898C1311.07 11.0353 1311.18 10.9845 1311.19 10.9192C1311.21 10.9047 1311.19 10.8684 1311.2 10.9119C1308.77 19.5958 1305.53 28.4647 1300.12 36.2522C1291.92 48.5068 1278.09 56.3052 1264.22 59.9558C1263.97 60.0829 1264.15 59.9812 1264.21 59.9558C1264.29 59.8796 1264.37 59.778 1264.4 59.7345C1264.48 59.6002 1264.35 59.4297 1264.22 59.3244C1264.21 59.3026 1263.84 59.1865 1265.04 59.5603C1289.61 65.6459 1305.84 84.3744 1311.58 108.572C1311.75 108.876 1311.4 108.22 1311.15 108.194C1310.75 107.973 1310.24 108.332 1310.09 108.662C1315.29 83.87 1331.09 64.8548 1356.11 58.2902C1356.1 58.3011 1357.73 57.764 1357.2 57.9563C1357.12 58.0471 1356.91 58.1559 1356.85 58.3192C1356.51 58.8091 1357.01 59.3498 1357.34 59.4478C1332.17 53.2751 1316.32 36.0308 1310.76 10.9773L1310.77 10.97Z" fill="black"/>
<path d="M1441.2 385.191C1445.11 401.917 1455.65 412.564 1472.03 416.138C1479.29 417.935 1480.62 428.883 1473.88 432.374C1468.55 434.508 1462.76 436.108 1458.2 439.392C1449.2 445.358 1444.55 455.388 1441.96 465.69C1441.78 466.394 1441.15 468.263 1440.53 469.047C1436.35 475.553 1425.65 473.431 1424.16 466.086C1420.64 450.061 1410.27 438.02 1394.58 434.014C1393.05 433.742 1389.57 431.779 1388.8 429.761C1385.84 425.033 1388.91 418.062 1394.17 417.013C1403.71 414.592 1412.26 409.973 1417.64 402.254C1421.02 397.453 1423.39 391.585 1424.87 385.725C1424.97 385.398 1425.35 383.78 1426.05 382.764C1429.64 376.635 1439.77 378.333 1441.2 385.191H1441.2ZM1433.14 387.234C1433.04 387.093 1433.2 387.235 1433.16 387.205C1433.15 387.158 1432.94 387.187 1432.98 387.191C1432.97 387.173 1433.03 387.158 1433.02 387.14C1433 387.224 1433.07 386.897 1432.8 387.819C1429.68 399.979 1423.19 412.306 1412 418.958C1407.1 422.006 1401.8 424.093 1396.48 425.581C1396.23 425.733 1396.62 425.483 1396.61 425.421C1396.63 425.327 1396.66 425.421 1396.62 425.279C1396.59 425.236 1396.54 425.138 1396.48 425.109C1396.48 425.109 1396.19 425 1397.13 425.29C1415.92 429.67 1429.36 445.126 1433.53 463.611C1433.66 463.847 1433.39 463.324 1433.19 463.302C1432.87 463.121 1432.45 463.411 1432.33 463.68C1435.12 451.276 1441.71 438.546 1452.85 431.405C1458.04 428.005 1463.64 425.802 1469.32 424.136C1469.3 424.133 1469.09 424.271 1469.03 424.401C1468.82 424.699 1469.18 425.025 1469.35 425.058C1450 420.37 1437.25 406.547 1433.14 387.242V387.234Z" fill="black"/>
<path d="M1518.14 450.939C1520.01 458.52 1524.7 464.086 1532.12 465.908L1534.02 466.409C1537.22 467.214 1538.8 471.355 1536.93 474.174C1536.19 475.397 1534.92 476.152 1533.58 476.53C1526.23 478.729 1521.63 483.798 1519.67 490.903L1519.17 492.696C1518.01 498.433 1509.66 498.51 1508.35 492.914C1506.52 484.818 1501.6 478.928 1493.74 476.809C1492.91 476.671 1490.79 475.455 1490.37 474.294C1488.63 471.504 1490.47 467.385 1493.55 466.786C1498.4 465.596 1502.67 463.339 1505.41 459.503C1507.66 456.593 1508.49 453.073 1509.95 449.604C1511.92 446.338 1517.37 447.23 1518.14 450.939H1518.14ZM1513.64 452.082C1513.59 452.057 1513.72 452.191 1513.75 452.198C1513.8 452.202 1513.75 452.209 1513.83 452.198C1513.86 452.18 1513.93 452.155 1513.95 452.118C1513.22 455.519 1511.87 459.343 1509.75 462.522C1506.43 467.584 1500.74 470.872 1495.07 472.418C1495.08 472.476 1495.51 472.19 1495.57 471.972C1495.72 471.638 1495.58 471.217 1495.26 471.003C1498.12 471.609 1502.65 473.503 1505.56 475.887C1510.6 479.781 1513.41 485.7 1514.84 491.201C1514.77 490.7 1513.79 490.098 1513.18 490.522C1512.83 490.584 1512.49 491.422 1512.62 491.067C1514.47 481.338 1521.94 472.687 1531.78 470.564L1532.27 470.419C1531.45 470.702 1531.52 471.892 1532.31 472.07C1522.61 469.78 1515.29 461.517 1513.63 452.082H1513.64Z" fill="black"/>
<path d="M1261.81 394.336C1264.02 403.256 1269.57 409.781 1278.31 411.885L1280.54 412.47C1284.32 413.413 1286.18 418.29 1283.98 421.618C1283.21 422.859 1281.96 423.788 1280.59 424.216C1272.1 426.568 1265.91 432.708 1263.67 441.246L1263.09 443.347C1261.72 450.075 1251.93 450.166 1250.4 443.605C1248.34 434.072 1242.48 427.112 1233.25 424.615C1232.28 424.452 1229.84 423.048 1229.35 421.698C1227.33 418.468 1229.46 413.703 1233.03 413.01C1238.75 411.617 1243.78 408.953 1247.03 404.432C1249.72 401.042 1250.66 396.869 1252.36 392.805C1254.63 389.009 1260.92 390.05 1261.81 394.333L1261.81 394.336ZM1256.67 395.635C1256.62 395.588 1256.76 395.719 1256.76 395.719C1256.8 395.708 1256.71 395.726 1256.78 395.708C1256.79 395.682 1256.85 395.664 1256.87 395.635C1255.95 399.707 1254.4 404.076 1251.94 407.85C1248.08 413.79 1241.4 417.63 1234.77 419.448C1234.76 419.52 1235.23 419.208 1235.3 418.976C1235.47 418.624 1235.32 418.174 1234.98 417.942C1238.42 418.697 1243.63 420.867 1247.08 423.657C1253.01 428.208 1256.25 435.157 1258 441.595C1257.78 440.633 1256.16 440.23 1255.53 441.283C1255.34 441.547 1255.33 441.809 1255.42 441.439C1257.66 429.913 1266.23 419.894 1277.89 417.318L1278.47 417.151C1277.48 417.492 1277.57 418.94 1278.53 419.139C1267.07 416.356 1258.67 406.779 1256.67 395.632L1256.67 395.635Z" fill="black"/>
<path d="M1331.68 338.851C1335.21 353.806 1344.75 363.342 1359.51 366.332C1365.74 367.838 1366.9 377.204 1361.15 380.231C1352.5 383.319 1343.86 387.089 1339.03 395.251C1336.25 399.478 1334.31 404.747 1333.02 409.828C1332.87 410.448 1332.31 412.099 1331.76 412.796C1328.06 418.559 1318.6 416.686 1317.28 410.183C1314.22 397.25 1306.67 387.046 1294.2 382.88C1292.1 381.965 1290.87 382.085 1288.51 380.717C1285.42 378.787 1284.18 374.584 1285.6 371.275C1286.4 369.029 1288.79 367.243 1290.78 366.804C1303.98 363.93 1313.34 354.956 1317.37 342.418C1318.38 339.733 1318.76 336.206 1321.77 334.656C1325.5 332.399 1330.79 334.656 1331.68 338.851ZM1325.9 340.317C1325.75 339.747 1325.15 339.707 1324.78 339.914C1324.52 340.201 1324.71 339.987 1324.44 340.876C1321.35 357.884 1308.87 370.785 1292.94 374.243C1293.01 374.174 1292.96 374.065 1292.84 373.949C1303.7 376.562 1314.87 383.715 1320.18 394.147C1322.65 398.596 1324.34 403.296 1325.6 407.992C1325.71 408.195 1325.46 407.73 1325.28 407.712C1325.03 407.607 1324.72 407.712 1324.57 407.966C1324.52 407.981 1324.53 408.06 1324.51 408.057C1324.49 408.068 1324.5 408.166 1324.6 407.741C1327.8 391.342 1339.85 377.252 1356.42 373.503C1356.42 373.514 1357.41 373.187 1357.24 373.274C1357.18 373.34 1357.02 373.557 1357.16 373.528C1357.16 373.546 1357.39 373.688 1357.32 373.612C1340.69 369.46 1329.29 356.974 1325.9 340.317Z" fill="black"/>
<path d="M85.8078 236.492C72.381 236.492 60.3151 234.398 49.6136 230.218C38.9122 226.037 29.8654 220.006 22.4735 212.124C15.0742 204.243 9.48581 194.612 5.69004 183.228C1.89426 171.844 0 158.857 0 144.265C0 125.199 3.50184 108.905 10.5091 95.377C17.5165 81.8523 27.5829 71.4412 40.7157 64.1472C53.8521 56.8495 69.1731 53.2026 86.686 53.2026C102.25 53.2026 115.63 55.877 126.821 61.2296C138.005 66.5821 146.958 74.268 153.671 84.2873C160.384 94.3138 164.616 106.616 166.365 121.211L125.794 128.799C123.849 116.348 119.712 106.764 113.391 100.051C107.066 93.334 97.7757 89.9809 85.5175 89.9809C75.3966 89.9809 67.0793 92.4159 60.5619 97.2786C54.0408 102.145 49.2761 108.615 46.2606 116.689C43.2414 124.767 41.739 133.963 41.739 144.272C41.739 155.95 43.2922 165.922 46.4057 174.188C49.5157 182.462 54.2368 188.929 60.5619 193.599C66.8797 198.269 75.1063 200.606 85.2235 200.606C93.9799 200.606 101.082 199.002 106.532 195.791C111.975 192.579 116.308 188.007 119.52 182.074C122.731 176.141 125.21 168.894 126.963 160.33L166.949 167.337C165.004 181.929 160.624 194.332 153.816 204.551C147.001 214.763 137.809 222.644 126.233 228.193C114.653 233.738 101.18 236.51 85.8078 236.51V236.492Z" fill="black"/>
<path d="M253.337 236.492C238.354 236.492 225.511 233.524 214.813 227.591C204.108 221.657 195.885 213.191 190.148 202.199C184.407 191.208 181.54 178.22 181.54 163.237C181.54 147.868 184.502 134.736 190.442 123.834C196.375 112.941 204.693 104.62 215.394 98.8789C226.092 93.1417 238.746 90.2676 253.337 90.2676C267.736 90.2676 280.234 93.1417 290.845 98.8789C301.449 104.62 309.671 112.941 315.507 123.834C321.342 134.736 324.263 147.868 324.263 163.237C324.263 186 317.989 203.905 305.437 216.94C292.884 229.978 275.52 236.492 253.337 236.492ZM253.043 123.541C242.142 123.541 234.115 126.944 228.962 133.752C223.806 140.567 221.229 150.296 221.229 162.939C221.229 171.311 222.347 178.456 224.586 184.393C226.818 190.33 230.276 194.902 234.946 198.11C239.613 201.321 245.644 202.925 253.04 202.925C264.133 202.925 272.106 199.42 276.972 192.416C281.835 185.409 284.273 175.586 284.273 162.935C284.273 154.571 283.199 147.516 281.062 141.776C278.917 136.038 275.517 131.56 270.846 128.352C266.176 125.141 260.239 123.541 253.043 123.541Z" fill="black"/>
<path d="M438.383 195.635H426.706L434.297 181.918C432.548 193.788 429.384 203.764 424.811 211.834C420.235 219.912 414.545 226.037 407.738 230.218C400.923 234.398 393.24 236.492 384.68 236.492C375.923 236.492 368.575 234.493 362.642 230.512C356.705 226.524 352.285 220.881 349.364 213.583C346.443 206.286 344.987 197.674 344.987 187.753V94.0634H384.68V176.663C384.68 181.334 385.358 185.47 386.719 189.067C388.08 192.67 390.37 195.49 393.581 197.533C396.793 199.572 400.73 200.599 405.401 200.599C411.236 200.599 416.204 199.383 420.29 196.949C424.376 194.517 427.587 191.015 429.917 186.439C432.254 181.871 433.423 176.761 433.423 171.115V94.0634H473.115V232.41H434.297V182.792L438.383 195.635Z" fill="black"/>
<path d="M592.192 150.1C591.023 145.241 589.463 140.908 587.522 137.112C585.573 133.32 582.753 130.356 579.059 128.211C575.358 126.073 570.495 124.999 564.468 124.999C555.319 124.999 548.12 128.019 542.869 134.05C537.614 140.081 534.987 149.712 534.987 162.943C534.987 170.922 536.104 177.832 538.343 183.667C540.579 189.502 543.888 193.984 548.268 197.09C552.645 200.204 558.237 201.76 565.048 201.76C571.076 201.76 575.946 200.548 579.64 198.113C583.338 195.682 586.157 192.471 588.106 188.482C590.047 184.494 591.608 180.161 592.773 175.495L629.261 184.251C626.924 200.204 620.649 212.905 610.434 222.34C600.223 231.778 585.188 236.492 565.342 236.492C550.939 236.492 538.387 233.818 527.689 228.465C516.988 223.116 508.718 215.14 502.879 204.533C497.044 193.929 494.126 180.742 494.126 164.986C494.126 149.229 496.942 135.799 502.588 124.705C508.231 113.612 516.451 105.106 527.254 99.1656C538.053 93.2324 550.75 90.264 565.342 90.264C579.157 90.264 590.388 92.4086 599.05 96.6871C607.709 100.973 614.419 107.098 619.191 115.074C623.955 123.054 627.312 132.493 629.261 143.387L592.192 150.1Z" fill="black"/>
<path d="M687.344 131.128H696.975L689.677 144.555C692.011 132.878 695.513 123.007 700.183 114.929C704.853 106.855 710.496 100.73 717.111 96.5419C723.723 92.3615 731.413 90.2676 740.169 90.2676C748.926 90.2676 756.223 92.2163 762.058 96.1064C767.894 100 772.274 105.589 775.191 112.886C778.112 120.184 779.571 128.795 779.571 138.716V232.406H739.581V149.806C739.581 145.136 738.852 141.05 737.389 137.548C735.934 134.046 733.692 131.274 730.676 129.231C727.657 127.188 723.716 126.164 718.857 126.164C713.207 126.164 708.348 127.38 704.265 129.811C700.176 132.25 696.968 135.65 694.634 140.026C692.301 144.403 691.129 149.512 691.129 155.351V232.402H651.437V45.3207H691.129V143.677L687.337 131.128H687.344Z" fill="black"/>
<path d="M849.909 94.0598H943.599V125.584H849.909V94.0598ZM867.128 188.918V58.4535H906.82V182.792C906.82 188.043 908.036 192.035 910.471 194.76C912.902 197.486 917.039 198.846 922.874 198.846C925.984 198.846 929.102 198.552 932.215 197.968C935.321 197.388 938.243 196.611 940.968 195.635L945.638 231.241C942.136 232.217 938.827 233.088 935.717 233.868C932.603 234.645 929.247 235.276 925.651 235.763C922.047 236.249 917.816 236.492 912.953 236.492C902.252 236.492 893.495 234.347 886.684 230.069C879.873 225.791 874.912 220.05 871.798 212.85C868.685 205.654 867.128 197.671 867.128 188.914V188.918Z" fill="black"/>
<path d="M1028.54 236.492C1013.55 236.492 1000.71 233.524 990.012 227.591C979.307 221.657 971.084 213.191 965.346 202.199C959.606 191.208 956.739 178.22 956.739 163.237C956.739 147.868 959.7 134.736 965.64 123.834C971.574 112.941 979.891 104.62 990.592 98.8789C1001.29 93.1417 1013.94 90.2676 1028.54 90.2676C1042.93 90.2676 1055.43 93.1417 1066.04 98.8789C1076.65 104.62 1084.87 112.941 1090.71 123.834C1096.54 134.736 1099.46 147.868 1099.46 163.237C1099.46 186 1093.19 203.905 1080.64 216.94C1068.08 229.978 1050.72 236.492 1028.54 236.492ZM1028.25 123.541C1017.34 123.541 1009.32 126.944 1004.16 133.752C999.008 140.567 996.431 150.296 996.431 162.939C996.431 171.311 997.549 178.456 999.788 184.393C1002.02 190.33 1005.48 194.902 1010.15 198.11C1014.81 201.321 1020.85 202.925 1028.24 202.925C1039.34 202.925 1047.31 199.42 1052.17 192.416C1057.04 185.409 1059.48 175.586 1059.48 162.935C1059.48 154.571 1058.4 147.516 1056.26 141.776C1054.12 136.038 1050.72 131.56 1046.05 128.352C1041.38 125.141 1035.44 123.541 1028.25 123.541Z" fill="black"/>
<path d="M89.5455 436.903C101.869 436.903 110.459 434.635 115.307 430.084C120.158 425.541 122.583 419.125 122.583 410.84C122.583 403.165 120.158 397.047 115.307 392.504C110.459 387.96 101.974 385.685 89.8503 385.685C82.168 385.685 75.2514 386.643 69.0897 388.563C62.9242 390.482 57.6189 393.062 53.1772 396.288L19.5341 383.261V285.975H155.003V325.671C137.425 325.671 121.41 325.374 106.971 324.764C92.5248 324.161 79.7403 323.352 68.6324 322.34C57.5209 321.335 47.8246 320.518 39.5363 319.916L57.4193 296.575V377.495H44.0833C49.5411 372.044 57.0637 367.091 66.662 362.645C76.2603 358.2 88.6383 355.976 103.789 355.976C117.927 355.976 129.495 358.356 138.488 363.099C147.476 367.849 154.139 374.367 158.49 382.648C162.83 390.932 165.007 400.531 165.007 411.439C165.007 425.181 162.075 436.395 156.218 445.082C150.354 453.773 141.772 460.236 130.454 464.475C119.139 468.72 105.4 470.84 89.2407 470.84C66.8107 470.84 49.0838 466.855 36.0526 458.868C23.0214 450.895 14.1815 438.521 9.53299 421.745L50.1434 410.837C51.9615 415.685 54.4835 420.079 57.7205 424.02C60.9502 427.961 65.1451 431.093 70.2981 433.419C75.451 435.745 81.8632 436.899 89.5419 436.899L89.5455 436.903Z" fill="black"/>
<path d="M231.074 273.554V467.817H189.553V273.554H231.074ZM232.892 394.173L278.957 324.169H325.929V327.5L262.591 410.234H207.737V380.231H263.803L328.658 464.482V467.82H281.682L230.468 394.173H232.892Z" fill="black"/>
<path d="M405.027 324.169H501.405V356.901H405.027V324.169ZM467.458 318.711V467.82H425.94V317.499C425.94 307.803 427.758 299.271 431.394 291.89C435.034 284.513 440.687 278.757 448.37 274.61C456.045 270.469 465.839 268.401 477.767 268.401C483.624 268.401 488.472 268.6 492.315 269.003C496.151 269.413 499.587 270.015 502.621 270.825L501.104 299.616C498.274 299.014 495.65 298.611 493.226 298.404C490.798 298.204 488.273 298.099 485.649 298.099C479.988 298.099 475.543 299.721 472.313 302.947C469.076 306.188 467.458 311.439 467.458 318.711Z" fill="black"/>
<path d="M582.931 472.055C567.371 472.055 554.038 468.971 542.93 462.813C531.819 456.654 523.276 447.865 517.318 436.445C511.356 425.033 508.376 411.548 508.376 395.991C508.376 380.031 511.457 366.394 517.623 355.076C523.781 343.765 532.421 335.124 543.536 329.162C554.648 323.207 567.781 320.224 582.931 320.224C597.882 320.224 610.859 323.207 621.876 329.162C632.882 335.124 641.425 343.761 647.485 355.076C653.545 366.394 656.579 380.031 656.579 395.991C656.579 419.629 650.061 438.22 637.03 451.748C623.995 465.291 605.963 472.055 582.931 472.055ZM582.63 354.771C571.312 354.771 562.976 358.309 557.624 365.382C552.267 372.454 549.593 382.553 549.593 395.69C549.593 404.381 550.754 411.805 553.08 417.967C555.399 424.133 558.988 428.876 563.84 432.207C568.688 435.545 574.948 437.211 582.63 437.211C594.148 437.211 602.429 433.575 607.48 426.303C612.532 419.023 615.057 408.826 615.057 395.69C615.057 387.006 613.943 379.679 611.726 373.717C609.502 367.755 605.967 363.106 601.119 359.775C596.267 356.444 590.102 354.771 582.63 354.771Z" fill="black"/>
<path d="M714.158 370.839L724.46 371.137L717.794 385.993C720.417 372.654 723.099 361.854 725.824 353.559C728.553 345.281 731.63 338.916 735.071 334.464C738.5 330.026 742.39 326.945 746.737 325.221C751.077 323.505 755.777 322.648 760.832 322.648H765.379V369.921H756.891C747.191 369.921 739.665 370.934 734.312 372.955C728.956 374.976 725.218 378.464 723.099 383.41C720.976 388.363 719.916 395.076 719.916 403.568V467.817H678.7V324.165H717.794V386.897L714.158 370.839Z" fill="black"/>
<path d="M936.911 323.864H908.116L926.304 294.158C924.486 302.04 922.363 310.423 919.939 319.313C917.515 328.208 914.884 337.196 912.057 346.29C909.226 355.384 906.497 364.376 903.874 373.267L874.172 467.824H829.319L892.962 285.986H952.969L1016.31 467.824H969.639L940.543 373.267C937.513 364.38 934.683 355.337 932.059 346.141C929.428 336.95 927.004 327.954 924.783 319.165C922.559 310.375 920.436 302.04 918.418 294.158L936.911 323.864ZM969.639 427.511H872.96V395.686H969.639V427.511Z" fill="black"/>
<path d="M1078.74 467.817H1035.1V285.979H1078.74V467.817Z" fill="black"/>
</g>
<defs>
<clipPath id="clip0_2512_467">
<rect width="1800" height="528.179" fill="white"/>
</clipPath>
</defs>
</svg>
